<svg xmlns="http://www.w3.org/2000/svg" viewBox="0 0 364.15 364.15">
	<polygon points="217.99 194.61 240.07 217.53 266.45 217.53 229.49 179.16 217.99 194.61"/>
	<polygon
			  points="119.13 199.7 135.24 178.56 163.85 208.26 175.35 192.81 146.9 163.27 183.47 115.29 159.58 115.29 119.13 168.36 119.13 115.29 100.13 115.29 100.13 217.53 119.13 217.53 119.13 199.7"/>
	<path d="M194.44,212.62h0l17.83-24h0l.8-1.07,53.82-72.3H243.2L205.75,165.6V115.29h-19v75.83l-9,12.07-8.19,11h0l-7.12,9.56c-6,8.08-9.76,10-19.13,10H99.51l5.94,19h37.87c15.46,0,24.77-4.8,34.37-17.71L191,217.2Z"/>
	<path d="M210.81,229.61l-10.65-11.05L188.66,234l8.46,8.78a34.18,34.18,0,0,0,22.48,9.56h40.9l5.94-19H219.6A16.08,16.08,0,0,1,210.81,229.61Z"/>
	<path d="M21.17,186.31,20.84,180l11.48,6.56L43,178.68l.33,6.35-6.75,4.81,7.22,4.08.33,6.35L32.69,193.5,22,201.23l-.33-6.32,6.76-4.68Z"/>
	<path d="M39,157.91q3.32.32,4.68,2t1,5L44,172.76q-.31,3.32-2,4.68t-5,1l-10.13-1q-3.32-.32-4.68-2t-1-5l.75-7.91q.32-3.32,2-4.68t5-1Zm-10.67,4.73a1.69,1.69,0,0,0-2.08,1.72l-.51,5.38a1.69,1.69,0,0,0,1.72,2.08l10.13,1a1.68,1.68,0,0,0,2.08-1.72l.51-5.38a1.69,1.69,0,0,0-1.72-2.08Z"/>
	<path d="M37.93,140.44l12.47-3.21-1.49,5.85-10,2.53-.71,2.77,8.8,2.25-1.42,5.54L24,150.66l1.42-5.54,8.47,2.17.71-2.77-5.06-4.58a6.85,6.85,0,0,1-1.68-2.22,4.18,4.18,0,0,1-.14-2.84,9.74,9.74,0,0,1,.31-1c.12-.32.23-.61.34-.87s.27-.56.37-.82l4.16,1.06-.32,1.23a1.34,1.34,0,0,0,.08.91,2.17,2.17,0,0,0,.49.72Z"/>
	<path d="M45.69,119.54l12.81-1.31-2.35,5.56-10.26,1-1.12,2.63L53.12,131l-2.23,5.27L30.4,127.6l2.23-5.27,8,3.41,1.12-2.63-4.33-5.28a6.92,6.92,0,0,1-1.33-2.44,4.16,4.16,0,0,1,.28-2.83c.14-.33.29-.65.45-.95s.32-.57.46-.81.35-.52.49-.76l4,1.67-.49,1.17a1.35,1.35,0,0,0-.06.91,2.14,2.14,0,0,0,.38.78Z"/>
	<path d="M68.35,102.18,59.2,117.27l-19-11.54,9.15-15.09,3.81,2.31L47,103.14l3.67,2.23,4.86-8,3.8,2.31-4.86,8,3.94,2.39,6.18-10.19Z"/>
	<path d="M56.12,79.39q-2.65,3.18-5.82.53l-.73-.61,2.65-3.18.61.51a1.07,1.07,0,0,0,1.56-.14l.61-.73a1.08,1.08,0,0,0-.09-1.52l-.05,0-.61-.51,2.65-3.17.73.61q3.18,2.65.53,5.82Zm22,10.88L67.6,81.51l5.61,14.61-3.87,4.64L52.25,86.51l3.67-4.39,10.5,8.76L60.81,76.26l3.87-4.64L81.77,85.88Z"/>
	<path d="M98.51,71l-4.32,3.75-5.94-6.84-6,5.21L88.19,80l-4.32,3.75-14.6-16.8,4.32-3.75,5.74,6.6,6-5.21L79.59,58l4.32-3.75Z"/>
	<path d="M104.31,67.15,99,70.42,94.43,47.08l5.4-3.36,18.91,14.44-5.26,3.28-3.31-2.62L103.42,63Zm-1.86-8.39,4.32-2.69-6.11-5Z"/>
	<path d="M137.09,50.54l-5.27,2.22L129,46l-4,1.66L124.2,56l-5.57,2.34.85-8.64A4.41,4.41,0,0,1,116,49a7.91,7.91,0,0,1-2.41-3.44l-.86-2q-1.29-3.08-.49-5t3.88-3.27L128.45,30Zm-18.2-7.17a1.68,1.68,0,0,0,2.5,1l5.86-2.47-2.34-5.57L119,38.82a1.69,1.69,0,0,0-1,2.5Z"/>
	<path d="M176.21,42.85l-27.7,3.94-3.14-22L151,24l2.51,17.63,5.35-.76-2.51-17.62,5.67-.81L164.56,40l5.35-.76L167.4,21.61l5.66-.81Z"/>
	<path d="M193,32.47,198.71,44l-6-.25-4.54-9.26-2.86-.12-.38,9-5.72-.24.93-22.24,5.72.24-.37,8.74,2.86.12,3.43-5.9A6.88,6.88,0,0,1,193.6,22a4.16,4.16,0,0,1,2.75-.73,3.51,3.51,0,0,1,1,.09l.91.15.88.2L199,26h-1.28a1.34,1.34,0,0,0-.87.27,2.15,2.15,0,0,0-.6.63Z"/>
	<path d="M220.59,42.18q-.65,3.28-2.43,4.46t-5,.54l-7.8-1.55Q202,45,200.85,43.2a6.91,6.91,0,0,1-.54-5l2-10q.65-3.28,2.43-4.46t5-.54l7.8,1.55q3.27.65,4.46,2.43t.54,5ZM217,31.09a1.68,1.68,0,0,0-1.5-2.24l-5.3-1A1.68,1.68,0,0,0,208,29.3l-2,10a1.69,1.69,0,0,0,1.5,2.24l5.3,1a1.69,1.69,0,0,0,2.24-1.5Z"/>
	<path d="M229.51,46.82a5.49,5.49,0,0,1-2.64,2.86,4.65,4.65,0,0,1-3.71,0c-.38-.14-.74-.3-1.1-.46s-.68-.33-1-.48-.66-.35-1-.53l1.51-4,1.34.5a1.32,1.32,0,0,0,1.08,0,1.53,1.53,0,0,0,.76-.8l6.72-15.13L248.08,35l-7.84,20.83-5.36-2,6.28-16.66-6.25-2.35Z"/>
	<path d="M246.4,59.1,241,56l18.4-15.09,5.51,3.17-3.79,23.49-5.38-3.09.74-4.16-6.89-4Zm6.52-5.6,4.41,2.5,1.52-7.74Z"/>
	<path d="M282.47,67.47l5.62,5.17q2.46,2.26,2.55,4.39t-2.17,4.59l-.64.7q-2.26,2.46-4.39,2.55t-4.59-2.17l-9.83-9,15.07-16.38,13,11.95-3,3.28-8.77-8.07Zm1.78,10.28a1.69,1.69,0,0,0-.11-2.7l-4.68-4.3-3.23,3.51,4.68,4.3a1.69,1.69,0,0,0,2.7-.11Z"/>
	<path d="M302.29,74.72l8.3,10.46q2.08,2.61,1.83,4.73t-2.86,4.2l-2.49,2q-2.61,2.08-4.74,1.83t-4.2-2.86l-4.74-6-5,4-3.56-4.48ZM306,89.63a1.69,1.69,0,0,0,.31-2.68l-4-5-5.48,4.35,4,5a1.69,1.69,0,0,0,2.68.31Z"/>
	<path d="M299.21,107.67l-3.12-5.36,23.47-3.93,3.2,5.49-15,18.49L304.65,117l2.71-3.24-4-6.86Zm8.44-1.61,2.56,4.39,5.17-6Z"/>
	<path d="M311.13,131.23,308.92,126l16.42-6.87L322.76,113l4.11-1.72,7.36,17.6-4.11,1.72-2.58-6.16Z"/>
	<path d="M329.73,140.7l1.88,7.39q.82,3.24-.27,5.07T327,155.82l-1.85.47q-3.24.82-5.07-.27t-2.66-4.33l-3.29-12.94,21.57-5.48,1.41,5.54Zm-4.13,9.58A1.69,1.69,0,0,0,327,148l-1.56-6.16-5.55,1.41,1.57,6.16a1.68,1.68,0,0,0,2.32,1.38Z"/>
	<path d="M321,177.52,319.21,160l22.14-2.21,1.75,17.56-4.43.44-1.18-11.86-4.27.43.93,9.33-4.43.44-.93-9.33-4.59.46,1.19,11.86Z"/>
	<path d="M343.24,180.33l-.59,12.7a6.39,6.39,0,0,1-1.62,4.51,5.75,5.75,0,0,1-4.37,1.26,5.31,5.31,0,0,1-3.06-1,4.44,4.44,0,0,1-1.57-2.11,5.83,5.83,0,0,1-.67,1.37,4.2,4.2,0,0,1-1.17,1.17,6,6,0,0,1-1.74.78,7.31,7.31,0,0,1-2.32.23,5.24,5.24,0,0,1-5.75-6.32l.64-13.66Zm-15.9,13.26a1.69,1.69,0,0,0,2-1.82l.3-6.35-4.44-.21-.3,6.35a1.69,1.69,0,0,0,1.82,2Zm8.93-.54a1.68,1.68,0,0,0,2-1.82l.25-5.4-4.44-.21-.25,5.4a1.68,1.68,0,0,0,1.82,2Z"/>
	<path d="M51,255.52l-11.22,16.3-4.16-8.29,9-13-2-3.93-12.44,6.25L26.33,245l30.56-15.35,3.94,7.86-12,6,2,3.93,10.49.2a10.57,10.57,0,0,1,4.19.88,6.42,6.42,0,0,1,3,3.15q.37.74.66,1.47c.19.49.35.94.48,1.34s.27.92.4,1.33l-5.89,3L63.27,257a2.06,2.06,0,0,0-1-1,3.3,3.3,0,0,0-1.29-.34Z"/>
	<path d="M48.24,282.94l-6.11-7.31,34.54-12,6.27,7.5L65,303l-6.11-7.31,3.28-5.6-7.83-9.37Zm12.38-4.61,5,6L71.93,274Z"/>
	<path d="M97.38,316.71q-2.85,3.74-6,4.13t-6.93-2.51l-5-3.85-5-3.85A37,37,0,0,1,69.32,306l3.79-5,5.17,3.94,4.56,3.48,4.25,3.24a2.48,2.48,0,0,0,1.8.59,2.22,2.22,0,0,0,1.55-.94l1.12-1.47q1.68-2.21-.65-4l-9.32-7.11,4.15-5.44,8.55,6.52a2.59,2.59,0,0,0,4.11-.55l.59-.78a2.59,2.59,0,0,0-.55-4.11L86,284.9l4.15-5.44,14.37,11q3.81,2.9,4.28,6T106.57,303a7.85,7.85,0,0,1-4,3,7.05,7.05,0,0,1-4.37-.11,8.82,8.82,0,0,1,1.16,2,6.42,6.42,0,0,1,.48,2.47,8.91,8.91,0,0,1-.51,2.84,10.81,10.81,0,0,1-1.7,3.07Z"/>
	<path d="M127,340.89l-8-3.61,8.63-19.15L108.3,332.46l-8.47-3.81,14-31.18,8,3.61-8.62,19.16,19.32-14.34,8.46,3.81Z"/>
	<path d="M169.59,340.48q-.91,5-3.6,6.92t-7.74,1l-12-2.16q-5-.91-6.92-3.6t-1-7.74l2.76-15.39q.91-5,3.6-6.92t7.74-1l12,2.16q5,.91,6.92,3.6t1,7.74Zm-5.89-16.94a2.59,2.59,0,0,0-2.37-3.4l-8.18-1.47a2.59,2.59,0,0,0-3.4,2.37L147,336.42a2.59,2.59,0,0,0,2.37,3.4l8.17,1.47a2.59,2.59,0,0,0,3.4-2.37Z"/>
	<path d="M207.7,348.17l-8.78.56-.88-13.9-12.19.77.88,13.89L178,350l-2.16-34.13,8.78-.55.85,13.41,12.19-.77-.85-13.41,8.78-.56Z"/>
	<path d="M245,328q1.55,4.89,0,7.8t-6.4,4.46L227,344q-4.89,1.55-7.8,0t-4.46-6.4L210,322.7q-1.55-4.89,0-7.8t6.4-4.46l11.6-3.7q4.89-1.55,7.8,0t4.46,6.4Zm-13.1-12.25a2.59,2.59,0,0,0-3.68-1.91l-7.92,2.51a2.59,2.59,0,0,0-1.91,3.68l4.72,14.9a2.59,2.59,0,0,0,3.68,1.91l7.92-2.51a2.59,2.59,0,0,0,1.91-3.68Z"/>
	<path d="M239.06,303.35l16.68-10.18q4.09-2.5,7.14-1.81t5.37,4.48a8.2,8.2,0,0,1,1.4,4.73,6.84,6.84,0,0,1-1.33,3.82,8.81,8.81,0,0,1,2.32-.33,6.48,6.48,0,0,1,2.5.48,9.15,9.15,0,0,1,2.49,1.54,11.24,11.24,0,0,1,2.28,2.75q2.5,4.09,1.75,7.18t-4.83,5.58l-17.93,11Zm22.19-2.1a2.59,2.59,0,0,0-4-1l-7.09,4.33,3.56,5.84,7.09-4.33a2.59,2.59,0,0,0,1-4Zm8.38,10.91a2.59,2.59,0,0,0-4-1l-8.34,5.09,3.56,5.84,8.34-5.09a2.59,2.59,0,0,0,1-4Z"/>
	<path d="M280.68,289l7.58-8.3q3.46-3.78,6.74-3.93t7.07,3.31l2.16,2q3.79,3.46,3.94,6.74t-3.31,7.06l-13.51,14.79L266.1,287.6l5.93-6.49Zm15.45-2.43a2.59,2.59,0,0,0-4.14.19l-6.26,6.85,6.49,5.93,6.26-6.85a2.59,2.59,0,0,0-.19-4.14Zm23.88-7.3-5.93,6.49-25.25-23.07,5.93-6.49Z"/>
	<path d="M304.12,235.89l4.39-8.73,10.34,17.5,20.32-2.36-4.38,8.7-12.67,1.28,6.53,10.94-4.4,8.78L314,254.26l-20.21,2.14,4.37-8.69,12.59-1.11Z"/>
	<path d="M182.08,364.15C81.68,364.15,0,282.47,0,182.08S81.68,0,182.08,0,364.15,81.68,364.15,182.08,282.47,364.15,182.08,364.15Zm0-358.72C84.67,5.43,5.43,84.67,5.43,182.08S84.67,358.72,182.08,358.72s176.65-79.24,176.65-176.65S279.48,5.43,182.08,5.43Z"/>
	<path d="M182.08,306.14A124.06,124.06,0,1,1,306.14,182.08,124.06,124.06,0,0,1,182.08,306.14Zm0-242.7A118.63,118.63,0,1,0,300.71,182.08,118.63,118.63,0,0,0,182.08,63.44Z"/>
</svg>