<svg xmlns="http://www.w3.org/2000/svg" viewBox="0 0 93.22 110.02">
	<path fill="white" d="M88,47.47h0c3,1.76,4.14,3.65,4.6,5.08a5.42,5.42,0,0,1,.29,1.74,4.88,4.88,0,0,1,0,.49v.12h0V55h0a1,1,0,0,0,0,.13,4.88,4.88,0,0,1,0,.49,5.42,5.42,0,0,1-.29,1.74c-.46,1.43-1.65,3.32-4.6,5.08h0L14.82,108.66h0a7.81,7.81,0,0,1-3.36,1,25.33,25.33,0,0,1-2.59.06H8.09a9.26,9.26,0,0,1-4.54-1,5.91,5.91,0,0,1-2.28-2.27,8.79,8.79,0,0,1-1-4.28h0V7.88h0a8.76,8.76,0,0,1,1-4.37C2.21,1.85,4.13.32,8.09.32h.78a25.33,25.33,0,0,1,2.59.06,7.81,7.81,0,0,1,3.36,1h0Z"/>
	<path fill="#333" d="M9.72,110H8.09a9.56,9.56,0,0,1-4.68-1A6.06,6.06,0,0,1,1,106.62a9,9,0,0,1-1-4.42V7.88A9,9,0,0,1,1,3.36C2.27,1.14,4.61,0,8.09,0h.78a25.91,25.91,0,0,1,2.61.06,8.16,8.16,0,0,1,3.49,1L88.18,47.22c3.1,1.84,4.28,3.86,4.73,5.23a6,6,0,0,1,.3,1.84,3.51,3.51,0,0,1,0,.54v.24a.56.56,0,0,1,0,.13,3.17,3.17,0,0,1,0,.53,6,6,0,0,1-.3,1.84c-.45,1.37-1.64,3.39-4.74,5.23L15,108.92a8.11,8.11,0,0,1-3.5,1A17.49,17.49,0,0,1,9.72,110ZM9.74.61H8.09c-3.21,0-5.42,1-6.56,3A8.49,8.49,0,0,0,.61,7.87v94.27a8.46,8.46,0,0,0,.92,4.14,5.41,5.41,0,0,0,2.17,2.15,9,9,0,0,0,4.39,1h.78a24.5,24.5,0,0,0,2.56-.06,7.46,7.46,0,0,0,3.23-.93L87.85,62.3c3-1.76,4.07-3.65,4.49-4.92a5.26,5.26,0,0,0,.27-1.65,4.16,4.16,0,0,0,0-.45.56.56,0,0,0,0-.1v-.34a.46.46,0,0,1,0-.1,4.16,4.16,0,0,0,0-.45,5.26,5.26,0,0,0-.27-1.65c-.42-1.27-1.53-3.16-4.48-4.91h0L14.66,1.61A7.6,7.6,0,0,0,11.43.67C10.85.62,10.29.61,9.74.61Z"/>
</svg>