<svg xmlns="http://www.w3.org/2000/svg" viewBox="0 0 78.98 79">
	<path fill="white" d="M58.87,55.58l-.18.21.2.2,19.2,19.19a2.08,2.08,0,0,1,0,2.91h0a2,2,0,0,1-1.44.61,2.09,2.09,0,0,1-1.46-.61L56,58.89l-.2-.2-.21.18a33.42,33.42,0,1,1,3.29-3.29ZM33.67,4.43A29.27,29.27,0,1,0,62.92,33.68,29.28,29.28,0,0,0,33.67,4.43Z"/>
	<path fill="#333" d="M76.64,79A2.36,2.36,0,0,1,75,78.3L55.77,59.1h0a33.72,33.72,0,1,1,3.33-3.33L78.3,75a2.37,2.37,0,0,1-1.66,4ZM55.8,58.28l19.6,19.6a1.79,1.79,0,0,0,2.47,0,1.77,1.77,0,0,0,0-2.48L58.28,55.8l.37-.42a33.11,33.11,0,1,0-3.27,3.27Zm-22.13,5A29.57,29.57,0,1,1,63.22,33.68,29.6,29.6,0,0,1,33.67,63.26Zm0-58.53a29,29,0,1,0,28.95,29A29,29,0,0,0,33.67,4.73Z"/>
</svg>