<svg xmlns="http://www.w3.org/2000/svg" xmlns:xlink="http://www.w3.org/1999/xlink" viewBox="0 0 92.1 98.93">
	<defs>
		<clipPath id="a">
			<rect fill="none" x="10" y="10" width="89" height="89"/>
		</clipPath>
		<clipPath id="b">
			<rect fill="none" width="89" height="89"/>
		</clipPath>
	</defs>
	<g>
		<g style="clip-path: url(#a);">
			<g style="opacity: 0.15;">
				<path fill="#212121"
				      d="M60.5,52.7a3,3,0,0,0-4.2,1.1c-.3.4-5.1,8.8-8.3,25.9-1.8-7.6-4-17.8-6.2-30a3.08,3.08,0,0,0-2.9-2.5,3.21,3.21,0,0,0-3.1,2.3c0,.2-3.7,15.1-14.9,35.9L17,31.8A3,3,0,0,0,13.7,29a3,3,0,0,0-2.8,3.3L15.4,96a3.09,3.09,0,0,0,2.3,2.8,1.7,1.7,0,0,0,.7.1A3,3,0,0,0,21,97.4,214.41,214.41,0,0,0,37.9,62.6c4.3,21.1,7.9,33.9,7.9,34.1A3,3,0,0,0,49,98.9a3.1,3.1,0,0,0,2.8-2.8c2.4-26.3,9.6-39,9.7-39.2A3,3,0,0,0,60.5,52.7Z"/>
				<path fill="#212121"
				      d="M15.2,22.8a3.11,3.11,0,0,0-4.4-4.4,3.49,3.49,0,0,0-.8,2.2,3.07,3.07,0,0,0,3.1,3.1A2.72,2.72,0,0,0,15.2,22.8Z"/>
				<circle fill="#212121" cx="73.4" cy="28.7" r="18.7"/>
			</g>
		</g>
		<g style="clip-path: url(#b);">
			<g>
				<path fill="#212121"
				      d="M50.5,42.7a3,3,0,0,0-4.2,1.1c-.3.4-5.1,8.8-8.3,25.9-1.8-7.6-4-17.8-6.2-30a3.08,3.08,0,0,0-2.9-2.5,3.21,3.21,0,0,0-3.1,2.3c0,.2-3.7,15.1-14.9,35.9L7,21.8A3,3,0,0,0,3.7,19,3,3,0,0,0,.9,22.3L5.4,86a3.09,3.09,0,0,0,2.3,2.8,1.7,1.7,0,0,0,.7.1A3,3,0,0,0,11,87.4,214.41,214.41,0,0,0,27.9,52.6c4.3,21.1,7.9,33.9,7.9,34.1A3,3,0,0,0,39,88.9a3.1,3.1,0,0,0,2.8-2.8c2.4-26.3,9.6-39,9.7-39.2A3,3,0,0,0,50.5,42.7Z"/>
				<path fill="#212121"
				      d="M5.2,12.8a3.14,3.14,0,0,0,0-4.4,3,3,0,0,0-2.1-.8,3.1,3.1,0,0,0-2.2.9A2.72,2.72,0,0,0,0,10.6a3.07,3.07,0,0,0,3.1,3.1A2.72,2.72,0,0,0,5.2,12.8Z"/>
				<circle fill="#212121" cx="63.4" cy="18.7" r="18.7"/>
			</g>
		</g>
	</g>
</svg>
