<svg xmlns="http://www.w3.org/2000/svg" xmlns:xlink="http://www.w3.org/1999/xlink" viewBox="0 0 91.59 92.98">
	<defs>
		<clipPath id="a" transform="translate(-0.82)">
			<rect fill="none" x="10" y="10" width="83" height="83"/>
		</clipPath>
		<clipPath id="b" transform="translate(-0.82)">
			<rect fill="none" width="83" height="83"/>
		</clipPath>
	</defs>
	<g>
		<g style="clip-path: url(#a);">
			<g style="opacity: 0.15;">
				<path fill="#212121"
				      d="M55.1,25.3l.2.2h4.6A1.54,1.54,0,0,0,61.4,24a1.24,1.24,0,0,1,1.4-1.3h7.5a1.27,1.27,0,0,0,.6-.1,3.43,3.43,0,0,0,2.3-4c-1-3.1-3.5-7.2-10.2-7.2-10.5,0-12.9,8-8.2,13.7C55,25.1,55,25.2,55.1,25.3Z"
				      transform="translate(-0.82)"/>
				<path fill="#212121"
				      d="M73.7,77.6l-23-23.2-1.6-1.6h0a.1.1,0,0,1-.1.1,4.35,4.35,0,0,1-3.4,1.2L73.9,86a4.14,4.14,0,0,0,3.9,1.3l10.1-1.9a5,5,0,0,0,4.5-5.1,3.57,3.57,0,0,0-1.2-2.7,3.36,3.36,0,0,0-2.9-.8c-.2,0-.4.1-.6.1L77.4,78.8A4.32,4.32,0,0,1,73.7,77.6Z"
				      transform="translate(-0.82)"/>
				<path fill="#212121"
				      d="M46.6,92.2a4.6,4.6,0,0,0,6.5-1.6l1.4-2.4-8.2-4.1a.1.1,0,0,1-.1-.1l-1,1.7A5.06,5.06,0,0,0,46.6,92.2Z"
				      transform="translate(-0.82)"/>
				<path fill="#212121" d="M18,92.2l2.2-1.4L15,83.3v-.1l-2.1,1.3a4.65,4.65,0,0,0-1.3,6.4A4.56,4.56,0,0,0,18,92.2Z"
				      transform="translate(-0.82)"/>
				<path fill="#212121"
				      d="M22.6,89.3a53.47,53.47,0,0,0,15-14.6l.9-1.4A3,3,0,0,1,41,71.9H53.5l-5.8,9.8,8.2,4.1a.1.1,0,0,1,.1.1l5.7-9.4-5.9-6.6L40.1,52.2a46.3,46.3,0,0,1-3.9,7.3L28.4,71.3a31.37,31.37,0,0,1-9.3,9.2l-1.8,1.1,5.3,7.7Z"
				      transform="translate(-0.82)"/>
				<path fill="#212121"
				      d="M32.8,31.1A7.73,7.73,0,0,0,32.4,42l7.1,7.6L46,43.1l-1.9-2c0-.1-.1-.2-.1-.3l-3.3-3.5,6.1-.8-1,2.4a1.38,1.38,0,0,1,.4.3l5.9,6c1.7,1.8,1.7,4.9.6,7.3l3.7,3.8,2.7-4.5.2,3.2a26.3,26.3,0,0,0,.7,4.9L70.3,70.3l4-2.8a.1.1,0,0,0,.1-.1l-3.3-5.6a19.53,19.53,0,0,1-2.6-9.1l-.5-11a7.37,7.37,0,0,0-3.6-6.1l-5.3-3.4a9.4,9.4,0,0,0,4.6,1.3,8.59,8.59,0,0,0,8.6-8.2c-.2.1-.4.1-.6.2a6.75,6.75,0,0,1-1.4.2H64a4.34,4.34,0,0,1-4.1,2.8H55.6a8.25,8.25,0,0,0,3,3.4l-5.2-3.3a7.85,7.85,0,0,0-5.6-1.1L35.4,29.9A3.93,3.93,0,0,0,32.8,31.1Z"
				      transform="translate(-0.82)"/>
				<path fill="#212121" d="M75.7,75.6c.1.1.2.1.3.2a4.53,4.53,0,0,0,.3-5.1l-.5-1-3.5,2.4Z"
				      transform="translate(-0.82)"/>
				<path fill="#212121" d="M49.1,48.9l1.3,1.4a3.39,3.39,0,0,0-.4-3.1l-1.9-2-6,6,3.7.2A1.75,1.75,0,0,0,47,51Z"
				      transform="translate(-0.82)"/>
				<path fill="#212121" d="M30.5,12.8H46A1.4,1.4,0,1,0,46,10H30.5a1.4,1.4,0,1,0,0,2.8Z"
				      transform="translate(-0.82)"/>
				<path fill="#212121" d="M46,18.4a1.4,1.4,0,1,0,0-2.8H39a1.4,1.4,0,1,0,0,2.8Z" transform="translate(-0.82)"/>
				<path fill="#212121" d="M22.1,52.2h9.8a1.4,1.4,0,0,0,0-2.8H22.1a1.4,1.4,0,0,0,0,2.8Z"
				      transform="translate(-0.82)"/>
				<path fill="#212121" d="M31.9,55H27.7a1.4,1.4,0,0,0,0,2.8h4.2a1.4,1.4,0,0,0,0-2.8Z"
				      transform="translate(-0.82)"/>
			</g>
		</g>
		<g style="clip-path: url(#b);">
			<g>
				<path fill="#212121"
				      d="M45.1,15.3l.2.2h4.6A1.54,1.54,0,0,0,51.4,14a1.24,1.24,0,0,1,1.4-1.3h7.5a1.27,1.27,0,0,0,.6-.1,3.43,3.43,0,0,0,2.3-4c-1-3.1-3.5-7.2-10.2-7.2-10.5,0-12.9,8-8.2,13.7C45,15.1,45,15.2,45.1,15.3Z"
				      transform="translate(-0.82)"/>
				<path fill="#212121"
				      d="M63.7,67.6l-23-23.2-1.6-1.6h0a.1.1,0,0,1-.1.1,4.35,4.35,0,0,1-3.4,1.2L63.9,76a4.14,4.14,0,0,0,3.9,1.3l10.1-1.9a5,5,0,0,0,4.5-5.1,3.57,3.57,0,0,0-1.2-2.7,3.36,3.36,0,0,0-2.9-.8c-.2,0-.4.1-.6.1L67.4,68.8A4.32,4.32,0,0,1,63.7,67.6Z"
				      transform="translate(-0.82)"/>
				<path fill="#212121"
				      d="M36.6,82.2a4.6,4.6,0,0,0,6.5-1.6l1.4-2.4-8.2-4.1a.1.1,0,0,1-.1-.1l-1,1.7A5.06,5.06,0,0,0,36.6,82.2Z"
				      transform="translate(-0.82)"/>
				<path fill="#212121" d="M8,82.2l2.2-1.4L5,73.3v-.1L2.9,74.5A4.68,4.68,0,0,0,1.6,81,4.63,4.63,0,0,0,8,82.2Z"
				      transform="translate(-0.82)"/>
				<path fill="#212121"
				      d="M12.6,79.3a53.47,53.47,0,0,0,15-14.6l.9-1.4A3,3,0,0,1,31,61.9H43.5l-5.8,9.8,8.2,4.1a.1.1,0,0,1,.1.1l5.7-9.4-5.9-6.6L30.1,42.2a46.3,46.3,0,0,1-3.9,7.3L18.4,61.3a31.37,31.37,0,0,1-9.3,9.2L7.3,71.6l5.3,7.7Z"
				      transform="translate(-0.82)"/>
				<path fill="#212121"
				      d="M22.8,21.1A7.73,7.73,0,0,0,22.4,32l7.1,7.6L36,33.1l-1.9-2c0-.1-.1-.2-.1-.3l-3.3-3.5,6.1-.8-1,2.4a1.38,1.38,0,0,1,.4.3l5.9,6c1.7,1.8,1.7,4.9.6,7.3l3.7,3.8,2.7-4.5.2,3.2a26.3,26.3,0,0,0,.7,4.9L60.3,60.3l4-2.8a.1.1,0,0,0,.1-.1l-3.3-5.6a19.53,19.53,0,0,1-2.6-9.1l-.5-11a7.37,7.37,0,0,0-3.6-6.1l-5.3-3.4a9.4,9.4,0,0,0,4.6,1.3,8.59,8.59,0,0,0,8.6-8.2c-.2.1-.4.1-.6.2a6.75,6.75,0,0,1-1.4.2H54a4.34,4.34,0,0,1-4.1,2.8H45.6a8.25,8.25,0,0,0,3,3.4l-5.2-3.3a7.85,7.85,0,0,0-5.6-1.1L25.4,19.9A3.93,3.93,0,0,0,22.8,21.1Z"
				      transform="translate(-0.82)"/>
				<path fill="#212121" d="M65.7,65.6c.1.1.2.1.3.2a4.53,4.53,0,0,0,.3-5.1l-.5-1-3.5,2.4Z"
				      transform="translate(-0.82)"/>
				<path fill="#212121" d="M39.1,38.9l1.3,1.4a3.39,3.39,0,0,0-.4-3.1l-1.9-2-6,6,3.7.2A1.75,1.75,0,0,0,37,41Z"
				      transform="translate(-0.82)"/>
				<path fill="#212121"
				      d="M20.5,2.8H36a1.37,1.37,0,0,0,1.4-1.4A1.43,1.43,0,0,0,36,0H20.5a1.37,1.37,0,0,0-1.4,1.4A1.37,1.37,0,0,0,20.5,2.8Z"
				      transform="translate(-0.82)"/>
				<path fill="#212121" d="M36,8.4a1.4,1.4,0,1,0,0-2.8H29a1.4,1.4,0,0,0,0,2.8Z" transform="translate(-0.82)"/>
				<path fill="#212121" d="M12.1,42.2h9.8a1.4,1.4,0,0,0,0-2.8H12.1a1.4,1.4,0,0,0,0,2.8Z"
				      transform="translate(-0.82)"/>
				<path fill="#212121" d="M21.9,45H17.7a1.4,1.4,0,0,0,0,2.8h4.2a1.4,1.4,0,0,0,0-2.8Z"
				      transform="translate(-0.82)"/>
			</g>
		</g>
	</g>
</svg>
