<svg xmlns="http://www.w3.org/2000/svg" xmlns:xlink="http://www.w3.org/1999/xlink" viewBox="0 0 91.5 93">
	<defs>
		<clipPath id="a" transform="translate(-0.7)">
			<rect fill="none" x="10" y="10" width="83" height="83"/>
		</clipPath>
		<clipPath id="b" transform="translate(-0.7)">
			<rect fill="none" width="83" height="83"/>
		</clipPath>
	</defs>
	<g>
		<g style="clip-path: url(#a);">
			<g style="opacity: 0.2;">
				<path d="M10.7,93H92.2V65.8H10.7ZM36.4,76.4h6v-3a1.5,1.5,0,0,1,3,0v3H81.6a1.5,1.5,0,0,1,0,3H45.4v3a1.5,1.5,0,0,1-3,0v-3h-6a1.5,1.5,0,0,1,0-3Zm-10.6-3a1.5,1.5,0,0,1,3,0v9.1a1.5,1.5,0,0,1-3,0Zm-6,0a1.5,1.5,0,0,1,3,0v9.1a1.5,1.5,0,0,1-3,0Z"
				      transform="translate(-0.7)"/>
				<path d="M10.7,10V62.8H92.2V10ZM61.4,38.4,44.8,49a1.08,1.08,0,0,1-.8.2,1.85,1.85,0,0,1-.7-.2,1.56,1.56,0,0,1-.8-1.3V26.6a1.34,1.34,0,0,1,.8-1.3,1.59,1.59,0,0,1,1.5,0L61.4,35.9a1.71,1.71,0,0,1,.7,1.3A1.64,1.64,0,0,1,61.4,38.4Z"
				      transform="translate(-0.7)"/>
			</g>
		</g>
		<rect fill="#e5e5e5" x="7.3" y="2" width="67" height="77"/>
		<g style="clip-path: url(#b);">
			<g>
				<path d="M.7,83H82.2V55.8H.7ZM26.4,66.4h6v-3a1.5,1.5,0,0,1,3,0v3H71.6a1.5,1.5,0,0,1,0,3H35.4v3a1.5,1.5,0,0,1-3,0v-3h-6a1.5,1.5,0,0,1,0-3Zm-10.6-3a1.5,1.5,0,0,1,3,0v9.1a1.5,1.5,0,0,1-3,0Zm-6,0a1.5,1.5,0,1,1,3,0v9.1a1.5,1.5,0,1,1-3,0Z"
				      transform="translate(-0.7)"/>
				<path d="M.7,0V52.8H82.2V0ZM51.4,28.4,34.8,39a1.08,1.08,0,0,1-.8.2,1.85,1.85,0,0,1-.7-.2,1.56,1.56,0,0,1-.8-1.3V16.6a1.34,1.34,0,0,1,.8-1.3,1.59,1.59,0,0,1,1.5,0L51.4,25.9a1.71,1.71,0,0,1,.7,1.3A1.64,1.64,0,0,1,51.4,28.4Z"
				      transform="translate(-0.7)"/>
			</g>
		</g>
	</g>
</svg>
