<svg xmlns="http://www.w3.org/2000/svg" xmlns:xlink="http://www.w3.org/1999/xlink" viewBox="0 0 90.2 93">
	<defs>
		<clipPath id="a" transform="translate(-1.4)">
			<rect fill="none" x="10" y="10" width="83" height="83"/>
		</clipPath>
		<clipPath id="b" transform="translate(-1.4)">
			<rect fill="none" width="83" height="83"/>
		</clipPath>
	</defs>
	<g>
		<g style="clip-path: url(#a);">
			<g style="opacity: 0.15;">
				<path  d="M81.6,10a1.37,1.37,0,0,0-1.4,1.4v1.4H78.8a1.4,1.4,0,1,0,0,2.8h1.4V17A1.4,1.4,0,0,0,83,17V15.6h1.4a1.4,1.4,0,1,0,0-2.8H83V11.4A1.37,1.37,0,0,0,81.6,10Z"
				      transform="translate(-1.4)"/>
				<path  d="M32.9,45.8a1.37,1.37,0,0,0,1.4-1.4V43h1.4a1.4,1.4,0,0,0,0-2.8H34.3V38.8a1.4,1.4,0,1,0-2.8,0v1.4H30A1.4,1.4,0,0,0,30,43h1.4v1.4A1.6,1.6,0,0,0,32.9,45.8Z"
				      transform="translate(-1.4)"/>
				<path  d="M11.4,91.6A1.37,1.37,0,0,0,12.8,93h6c3.4-13.9,8.9-23.2,16.7-28.3a24.32,24.32,0,0,0-8.4-1.8A28.79,28.79,0,0,0,12,67.5a1.52,1.52,0,0,0-.7,1.2V91.6Z"
				      transform="translate(-1.4)"/>
				<path  d="M91.5,74.6,87.6,59c-2.3-9.1-8.4-17.4-12-22.3q-1.35-1.8-2.1-3c-.7-1-1.6-2.6-2.9-4.9A22.72,22.72,0,0,0,63,20.7L53,14.1a7.21,7.21,0,0,0-4-1.2H47.9a7.09,7.09,0,0,0-6.3,3.8,5.62,5.62,0,0,0,.1,5.2c1.3,2.4,3.7,5.3,7.1,5.3a32.53,32.53,0,0,1,9.8,1.2,4.18,4.18,0,0,1,1.8,1.1c5.6,6,5,12.7,4.5,18.7-.1,1.7-.3,3.2-.3,4.7a25.54,25.54,0,0,0,.8,6.1,4.14,4.14,0,0,1-.9,3.7A46.4,46.4,0,0,1,72.4,67a1.37,1.37,0,0,1,.6,1.3,1.3,1.3,0,0,1-.8,1.2,1.39,1.39,0,0,1-1.4-.1,39.28,39.28,0,0,0-10.7-5.2H60A27.76,27.76,0,0,0,53,63c-1.1,0-2.1.1-3.1.1a13.66,13.66,0,0,1-1.9.2c-.3,0-.6.1-.9.1a15.54,15.54,0,0,0-2.3.5c-.1,0-.2.1-.3.1a22.5,22.5,0,0,0-2.4.8H42c-9.6,3.7-16,12.9-19.9,28.1H34.3a2.79,2.79,0,0,0,2-.8l1-1a2.87,2.87,0,0,1,2.9-.7A46.36,46.36,0,0,0,56,93c23.5,0,32.5-11.4,35.3-16.3A3,3,0,0,0,91.5,74.6Z"
				      transform="translate(-1.4)"/>
			</g>
		</g>
		<g style="clip-path: url(#b);">
			<g>
				<path d="M71.6,0a1.37,1.37,0,0,0-1.4,1.4V2.8H68.8a1.37,1.37,0,0,0-1.4,1.4,1.37,1.37,0,0,0,1.4,1.4h1.4V7A1.4,1.4,0,0,0,73,7V5.7h1.4a1.37,1.37,0,0,0,1.4-1.4,1.37,1.37,0,0,0-1.4-1.4H73V1.4A1.37,1.37,0,0,0,71.6,0Z"
				      transform="translate(-1.4)"/>
				<path d="M22.9,35.8a1.37,1.37,0,0,0,1.4-1.4V33h1.4a1.4,1.4,0,0,0,0-2.8H24.3V28.8a1.4,1.4,0,0,0-2.8,0v1.4H20A1.4,1.4,0,1,0,20,33h1.4v1.4A1.6,1.6,0,0,0,22.9,35.8Z"
				      transform="translate(-1.4)"/>
				<path d="M1.4,81.6A1.37,1.37,0,0,0,2.8,83h6c3.4-13.9,8.9-23.2,16.7-28.3a24.32,24.32,0,0,0-8.4-1.8,29,29,0,0,0-15,4.6,1.52,1.52,0,0,0-.7,1.2Z"
				      transform="translate(-1.4)"/>
				<path d="M81.5,64.6,77.6,49c-2.3-9.1-8.4-17.4-12-22.3q-1.35-1.8-2.1-3c-.7-1-1.6-2.6-2.9-4.9A22.72,22.72,0,0,0,53,10.7L43,4.1a7.21,7.21,0,0,0-4-1.2H37.9a7.09,7.09,0,0,0-6.3,3.8,5.62,5.62,0,0,0,.1,5.2c1.3,2.4,3.7,5.3,7.1,5.3a32.53,32.53,0,0,1,9.8,1.2,4.18,4.18,0,0,1,1.8,1.1c5.6,6,5,12.7,4.5,18.7-.1,1.7-.3,3.2-.3,4.7a25.54,25.54,0,0,0,.8,6.1,4.14,4.14,0,0,1-.9,3.7A46.4,46.4,0,0,1,62.4,57a1.37,1.37,0,0,1,.6,1.3,1.3,1.3,0,0,1-.8,1.2,1.39,1.39,0,0,1-1.4-.1,39.28,39.28,0,0,0-10.7-5.2H50A27.76,27.76,0,0,0,43,53c-1.1,0-2.1.1-3.1.1a13.66,13.66,0,0,1-1.9.2c-.3,0-.6.1-.9.1a15.54,15.54,0,0,0-2.3.5c-.1,0-.2.1-.3.1a22.5,22.5,0,0,0-2.4.8H32c-9.6,3.7-16,12.9-19.9,28.1H24.3a2.79,2.79,0,0,0,2-.8l1-1a2.87,2.87,0,0,1,2.9-.7A46.36,46.36,0,0,0,46,83c23.5,0,32.5-11.4,35.3-16.3A3,3,0,0,0,81.5,64.6Z"
				      transform="translate(-1.4)"/>
			</g>
		</g>
	</g>
</svg>
