<svg xmlns="http://www.w3.org/2000/svg" xmlns:xlink="http://www.w3.org/1999/xlink" viewBox="0 0 133.2 79.8">
	<defs>
		<clipPath id="a" transform="translate(0 -26.6)">
			<rect fill="none" x="10.2" y="10" width="123" height="123"/>
		</clipPath>
		<clipPath id="b" transform="translate(0 -26.6)">
			<rect fill="none" x="0.2" width="123" height="123"/>
		</clipPath>
	</defs>
	<g>
		<g style="clip-path: url(#a);">
			<g style="opacity: 0.15;">
				<path d="M101.6,92.3A101.84,101.84,0,0,0,82.7,80.2a.55.55,0,0,1-.3-.5V66.9a6.07,6.07,0,0,0,2.7-5V48.6a12,12,0,0,0-12-12H70.2a12,12,0,0,0-12,12V61.9a6.07,6.07,0,0,0,2.7,5V79.7a.55.55,0,0,1-.3.5A107.9,107.9,0,0,0,41.7,92.3a6.41,6.41,0,0,0-2.3,5v9.1H104V97.3A6.84,6.84,0,0,0,101.6,92.3Z"
				      transform="translate(0 -26.6)"/>
				<path d="M131.1,83.3a87,87,0,0,0-15.9-10.2.55.55,0,0,1-.3-.5V62a5.07,5.07,0,0,0,2.2-4.2V46.7a10,10,0,0,0-10-10h-2.4a10,10,0,0,0-10,10V57.8A5.21,5.21,0,0,0,96.9,62V72.7a.55.55,0,0,1-.3.5c-.9.5-4.2,2.1-8.1,4.6a109.61,109.61,0,0,1,16.1,10.8,11,11,0,0,1,3.9,6.6h24.7V87.6A5.77,5.77,0,0,0,131.1,83.3Z"
				      transform="translate(0 -26.6)"/>
				<path d="M46.5,73.2a.55.55,0,0,1-.3-.5V62a5.07,5.07,0,0,0,2.2-4.2V46.7a10,10,0,0,0-10-10H36a10,10,0,0,0-10,10V57.8A5.21,5.21,0,0,0,28.2,62V72.7a.55.55,0,0,1-.3.5A84.69,84.69,0,0,0,12,83.4a5.47,5.47,0,0,0-2,4.2v7.6H34.5a11.53,11.53,0,0,1,3.9-6.6A112.47,112.47,0,0,1,54.5,77.8,51.06,51.06,0,0,0,46.5,73.2Z"
				      transform="translate(0 -26.6)"/>
			</g>
		</g>
		<g style="clip-path: url(#b);">
			<g>
				<path d="M91.6,82.3A101.84,101.84,0,0,0,72.7,70.2a.55.55,0,0,1-.3-.5V56.9a6.07,6.07,0,0,0,2.7-5V38.6a12,12,0,0,0-12-12H60.2a12,12,0,0,0-12,12V51.9a6.07,6.07,0,0,0,2.7,5V69.7a.55.55,0,0,1-.3.5A107.9,107.9,0,0,0,31.7,82.3a6.41,6.41,0,0,0-2.3,5v9.1H94V87.3A6.84,6.84,0,0,0,91.6,82.3Z"
				      transform="translate(0 -26.6)"/>
				<path d="M121.1,73.3a87,87,0,0,0-15.9-10.2.55.55,0,0,1-.3-.5V52a5.07,5.07,0,0,0,2.2-4.2V36.7a10,10,0,0,0-10-10H94.7a10,10,0,0,0-10,10V47.8A5.21,5.21,0,0,0,86.9,52V62.7a.55.55,0,0,1-.3.5c-.9.5-4.2,2.1-8.1,4.6A109.61,109.61,0,0,1,94.6,78.6a11,11,0,0,1,3.9,6.6h24.7V77.6A5.77,5.77,0,0,0,121.1,73.3Z"
				      transform="translate(0 -26.6)"/>
				<path d="M36.5,63.2a.55.55,0,0,1-.3-.5V52a5.07,5.07,0,0,0,2.2-4.2V36.7a10,10,0,0,0-10-10H26a10,10,0,0,0-10,10V47.8A5.21,5.21,0,0,0,18.2,52V62.7a.55.55,0,0,1-.3.5A84.69,84.69,0,0,0,2,73.4a5.47,5.47,0,0,0-2,4.2v7.6H24.5a11.53,11.53,0,0,1,3.9-6.6A112.47,112.47,0,0,1,44.5,67.8,51.06,51.06,0,0,0,36.5,63.2Z"
				      transform="translate(0 -26.6)"/>
			</g>
		</g>
	</g>
</svg>
