<svg xmlns="http://www.w3.org/2000/svg" viewBox="0 0 77.56 91">
	<g>
		<g style="opacity: 0.2;">
			<path d="M77.26,14.8a3.63,3.63,0,0,0-3.5-3H66a3.92,3.92,0,0,0-3.2-1.8h-38a3.79,3.79,0,0,0-3.2,1.9h-7.8a3.63,3.63,0,0,0-3.5,3,30.81,30.81,0,0,0,.9,12.4,22.07,22.07,0,0,0,11.1,13.6c-1.1,2.7-2.4,5.8-4.1,9.1a2,2,0,0,0,.3,2.1c5.1,5.6,10.8,9.4,17,11.2v.6A4.76,4.76,0,0,0,38,68.1a28.19,28.19,0,0,1-2,11.5h-6.8a2.69,2.69,0,0,0-2.7,2.7v6a2.69,2.69,0,0,0,2.7,2.7h29.4a2.69,2.69,0,0,0,2.7-2.7v-6a2.69,2.69,0,0,0-2.7-2.7h-6.8a27.93,27.93,0,0,1-2-11.5,4.76,4.76,0,0,0,2.5-4.2v-.6a37.72,37.72,0,0,0,17-11.2,2,2,0,0,0,.3-2.1c-1.7-3.3-3-6.4-4.1-9.1a22.07,22.07,0,0,0,11.1-13.6A33.57,33.57,0,0,0,77.26,14.8ZM18.06,25.4a23.29,23.29,0,0,1-.9-6.4h4.4a3.66,3.66,0,0,0,3.2,1.9,4.71,4.71,0,0,0,1.7-.4v.1c.3,2.8.1,7-1.9,13.4A14.64,14.64,0,0,1,18.06,25.4Zm14.5,29.2c-2.8.7-5.8-1.8-7.3-3.8a1.77,1.77,0,0,1-.5-1.7,3.33,3.33,0,0,1,.6-1,38.83,38.83,0,0,0,2.4-4.5,71.78,71.78,0,0,0,3.4-10.2c.6-2.6,1-5.3,1.5-7.9a39.62,39.62,0,0,1-.3,13.3A27.46,27.46,0,0,1,31,43.7a26.55,26.55,0,0,1-2.8,5.9A20.82,20.82,0,0,0,32.56,54.6Zm36.9-29.2a14.2,14.2,0,0,1-6.6,8.5c-1.9-6.3-2.2-10.6-1.8-13.5a3.29,3.29,0,0,0,1.7.4A3.79,3.79,0,0,0,66,18.9h4.4A22.53,22.53,0,0,1,69.46,25.4Z"/>
		</g>
		<path d="M16.26,27.5,20.76,11l6-2c.7,1.7,2,5.5,2,7.5,0,2.5,1.5,13.5,1.5,15.5s-2.5,14.5-3.5,16c-.8,1.2-5.7-.5-8-1.5L11.26,40Z"/>
		<path d="M67.26,4.8a3.63,3.63,0,0,0-3.5-3H56A3.92,3.92,0,0,0,52.76,0h-38a3.79,3.79,0,0,0-3.2,1.9H3.76a3.63,3.63,0,0,0-3.5,3,30.81,30.81,0,0,0,.9,12.4,22.07,22.07,0,0,0,11.1,13.6c-1.1,2.7-2.4,5.8-4.1,9.1a2,2,0,0,0,.3,2.1c5.1,5.6,10.8,9.4,17,11.2v.6A4.76,4.76,0,0,0,28,58.1a28.19,28.19,0,0,1-2,11.5h-6.8a2.69,2.69,0,0,0-2.7,2.7v6a2.69,2.69,0,0,0,2.7,2.7h29.4a2.69,2.69,0,0,0,2.7-2.7v-6a2.69,2.69,0,0,0-2.7-2.7h-6.8a27.93,27.93,0,0,1-2-11.5,4.76,4.76,0,0,0,2.5-4.2v-.6a37.72,37.72,0,0,0,17-11.2,2,2,0,0,0,.3-2.1c-1.7-3.3-3-6.4-4.1-9.1a22.07,22.07,0,0,0,11.1-13.6A33.57,33.57,0,0,0,67.26,4.8ZM8.06,15.4A23.29,23.29,0,0,1,7.16,9h4.4a3.66,3.66,0,0,0,3.2,1.9,4.71,4.71,0,0,0,1.7-.4v.1c.3,2.8.1,7-1.9,13.4A14.64,14.64,0,0,1,8.06,15.4Zm14.5,29.2c-2.8.7-5.8-1.8-7.3-3.8a1.77,1.77,0,0,1-.5-1.7,3.33,3.33,0,0,1,.6-1,38.83,38.83,0,0,0,2.4-4.5,71.78,71.78,0,0,0,3.4-10.2c.6-2.6,1-5.3,1.5-7.9a39.62,39.62,0,0,1-.3,13.3A27.46,27.46,0,0,1,21,33.7a26.55,26.55,0,0,1-2.8,5.9A20.82,20.82,0,0,0,22.56,44.6Zm36.9-29.2a14.2,14.2,0,0,1-6.6,8.5c-1.9-6.3-2.2-10.6-1.8-13.5a3.29,3.29,0,0,0,1.7.4A3.79,3.79,0,0,0,56,8.9h4.4A22.53,22.53,0,0,1,59.46,15.4Z"/>
	</g>
</svg>
