<svg xmlns="http://www.w3.org/2000/svg" viewBox="0 0 76.41 80">
	<path d="M38.21,12.2c3.1,0,5.6-3.6,5.6-6.6A5.66,5.66,0,0,0,38.21,0a5.59,5.59,0,0,0-5.6,5.6C32.61,8.6,35.11,12.2,38.21,12.2Z"/>
	<path d="M12.71,26.3c3.1,0,5.6-3.6,5.6-6.6a5.6,5.6,0,1,0-11.2,0C7.21,22.8,9.61,26.3,12.71,26.3Z"/>
	<path d="M18.91,47.2v-15c.2.1.4.1.6.2l1.6,14.4a2.26,2.26,0,0,0,2.2,2h.2a2.09,2.09,0,0,0,1.9-2.4l-1.8-15.8c0-.1-.1-.2-.1-.3s-.1-.3-.1-.5l-.3-.3-.3-.3c-.1-.1-.3-.2-.4-.3a.22.22,0,0,1-.2-.2,32.41,32.41,0,0,0-9.5-1.9,33.91,33.91,0,0,0-9.4,1.8h-.1a.1.1,0,0,0-.1.1,2.09,2.09,0,0,0-.6.4l-.2.2c-.1.1-.2.3-.3.4a.6.6,0,0,0-.1.4c0,.1-.1.2-.1.3L0,46.3a2.15,2.15,0,0,0,1.9,2.4h.2a2.18,2.18,0,0,0,2.2-2l1.6-14.4c.2-.1.4-.1.6-.2v15L5.11,65.7H0v8.5h2.1V80h21.2V74.2h2.1V65.7h-5.1ZM12.71,50a4.25,4.25,0,0,0,1.1-.2l1.3,16h-4.7l1.3-16A3,3,0,0,0,12.71,50Z"/>
	<path d="M63.71,22.8c3.1,0,5.6-3.6,5.6-6.6a5.6,5.6,0,1,0-11.2,0C58.11,19.2,60.61,22.8,63.71,22.8Z"/>
	<path d="M50.91,51.5h-5.1L44.31,33V20.3a2.92,2.92,0,0,0,.9.2,2.23,2.23,0,0,0,1.8-1L57.61,3.7a2.11,2.11,0,0,0-.6-3,2.11,2.11,0,0,0-3,.6l-8.4,12.6a23.88,23.88,0,0,0-7.3-1.3A23.31,23.31,0,0,0,31,13.9L22.41,1.3a2.13,2.13,0,0,0-3-.6,2.13,2.13,0,0,0-.6,3l10.5,15.8a2.23,2.23,0,0,0,1.8,1,2.92,2.92,0,0,0,.9-.2V33l-1.5,18.5h-5.1V60h2.1V80h21.2V60h2.1V51.5ZM38.21,35.8a4.25,4.25,0,0,0,1.1-.2l1.3,16h-4.7l1.3-16A2.51,2.51,0,0,0,38.21,35.8Z"/>
	<path d="M71.31,62.1l-1.5-18.5v-15c.2.1.4.1.6.2L72,43.2a2.26,2.26,0,0,0,2.2,2h.2a2.09,2.09,0,0,0,1.9-2.4L74.61,27c0-.1-.1-.2-.1-.3s-.1-.3-.1-.4-.2-.2-.2-.3l-.3-.3c-.1-.1-.3-.2-.4-.3a.22.22,0,0,1-.2-.2,32.41,32.41,0,0,0-9.5-1.9,33.91,33.91,0,0,0-9.4,1.8h-.2a2.09,2.09,0,0,0-.6.4l-.2.2c-.1.1-.2.3-.3.4a.6.6,0,0,0-.1.4c0,.1-.1.2-.1.3l-1.8,15.8A2.15,2.15,0,0,0,53,45h.2a2.18,2.18,0,0,0,2.2-2L57,28.6c.2-.1.4-.1.6-.2v15l-1.5,18.5H51v8.5h2.1V80h21.2V70.7h2.1V62.2h-5.1Zm-7.6-15.7a4.25,4.25,0,0,0,1.1-.2l1.3,16h-4.7l1.3-16A2.51,2.51,0,0,0,63.71,46.4Z"/>
</svg>
