<svg xmlns="http://www.w3.org/2000/svg" viewBox="0 0 70.13 79.97">
	<path d="M25.69,30.37a6.5,6.5,0,1,0-6.5-6.5A6.49,6.49,0,0,0,25.69,30.37Z"/>
	<path d="M39.89,52.27a4.23,4.23,0,0,0,4.2-4.2,4.14,4.14,0,0,0-4.2-4.1,4.23,4.23,0,0,0-4.2,4.2A4.14,4.14,0,0,0,39.89,52.27Z"/>
	<path d="M62.79,34.37C68,8.67,47.09-3,24,.67S1.69,18.37.29,25.07c-2.7,16.7,14.6,35.4,14.6,35.4l-1,19.5H42l2.2-8.9s1.2,2,8.5,2.7,6.4-8.2,6.4-8.2,4.8-2.1,4.8-3.7-2.9-3.7-2.9-3.7,3.1.6,4.2-.7-1.4-6-1.4-6,3.8-.1,6-2.6S62.79,39.07,62.79,34.37Zm-40.2,3.5s-.2-1.7-.2-2.6a11.76,11.76,0,0,1-2-.7c-.8.6-2.3,1.9-2.3,1.9a1.42,1.42,0,0,0-.4.2,21.12,21.12,0,0,1-2.6-.2l-4.2-4.9v-3s1.6-1.4,2.4-2a6.93,6.93,0,0,1-.3-2c-1.1-.5-3.2-1.4-3.2-1.4L9,20.67l.1-.4,2.7-5.9,2.9-.8,2.7,1.2a18.76,18.76,0,0,1,1.8-1.2l-.3-3.3L21,8.17l6.5-.5,2.1,2.1s.1,1.7.2,2.5a11.72,11.72,0,0,1,2.4.9l2.1-1.8h3l4.2,4.9v2.9s-1.7,1.5-2.6,2.2a11,11,0,0,1,.2,1.8c1.1.6,3.2,1.9,3.2,1.9l.8,2.9-3.2,5.6-2.9.8s-1.7-1-2.5-1.5a13,13,0,0,1-1.5,1c.1,1.1.3,3.4.3,3.4l-2.1,2.1-6.5.6Zm26.3,16.5-1.8.5s-1.1-.6-1.6-.9a8.79,8.79,0,0,1-1,.6c.1.7.2,2.2.2,2.2l-1.3,1.3-4.1.4L38,57.17s-.1-1.1-.2-1.7a6.94,6.94,0,0,1-1.3-.5L35,56.17l-.2.1-1.6-.1L30.49,53v-1.9s1-.9,1.5-1.3a5.85,5.85,0,0,1-.2-1.3c-.7-.3-2-.9-2-.9l-.5-1.6.1-.3,1.7-3.8,1.8-.5s1.2.5,1.7.8l1.1-.8c-.1-.7-.2-2.1-.2-2.1l1.3-1.3,4.1-.3,1.3,1.3s.1,1.1.1,1.6a4,4,0,0,1,1.5.6c.4-.4,1.3-1.2,1.3-1.2H47l2.7,3.2v1.9s-1.1.9-1.6,1.4a4.87,4.87,0,0,1,.1,1.2l2.1,1.2.5,1.8Z"/>
</svg>
