<svg xmlns="http://www.w3.org/2000/svg" viewBox="0 0 80 80">
	<path d="M80,67.1c0-4.7-3.5-10-8.6-10a16.4,16.4,0,0,0-6.5,1.3h0a10.1,10.1,0,0,0-3.7,3.7,1.34,1.34,0,0,1-1.3.8,1.42,1.42,0,0,1-.6-.2,1.78,1.78,0,0,1-.7-.8,1.38,1.38,0,0,1,.1-1.1A12.48,12.48,0,0,1,62,56.9c-10-11.4-7.7-27.3-7.1-30.5a1.57,1.57,0,0,0-.4-1.3l-8.8-8.8c-.6-.7-1.7-.2-2-.1l-.2.1c-4.7,2.3-11.1,5.4-16.1.4-4.8-4.8-5.7-9.4-2.7-13.9A1.51,1.51,0,0,0,24.5.9L24,.4A1.28,1.28,0,0,0,23,0a1.78,1.78,0,0,0-1,.4L5.3,17.3l-.1.1c0,.1-.1.1-.1.2a2.93,2.93,0,0,0-.1,4C12.8,30.5,44.8,65.4,57.9,74c3,2.1,6.2,4.1,9.4,5.9C76.6,79.6,80,76.1,80,67.1ZM50,35.7a1.4,1.4,0,1,1,1.4-1.4A1.37,1.37,0,0,1,50,35.7Zm0-7.1a1.4,1.4,0,1,1,1.4-1.4A1.43,1.43,0,0,1,50,28.6Z"/>
	<path d="M56.3,76.4C43,67.6,10.8,32.4,2.9,23.5a7,7,0,0,1-1.3-2.4l-.7.7a3,3,0,0,0-.8,2.4h0a2.84,2.84,0,0,0,.7,1.7C16.9,44.2,51.1,80,57.1,80h4.7C58.5,78,56.4,76.5,56.3,76.4Z"/>
	<path d="M22.8,71.4A1.37,1.37,0,0,0,21.4,70H10a1.4,1.4,0,0,0,0,2.8H21.4A1.31,1.31,0,0,0,22.8,71.4Z"/>
	<path d="M1.4,67.1H12.8a1.4,1.4,0,0,0,0-2.8H1.4a1.4,1.4,0,0,0,0,2.8Z"/>
</svg>
