<svg xmlns="http://www.w3.org/2000/svg" viewBox="0 0 83.01 68.5">
	<path d="M13.7,56.6l-2.5,1.5a1.94,1.94,0,0,1-1.1-.4,8.72,8.72,0,0,1-2.4-2.6l-5-8.4A1.46,1.46,0,1,0,.2,48.2l5,8.4a10.17,10.17,0,0,0,3.3,3.5,4.79,4.79,0,0,0,2.6.9,2.93,2.93,0,0,0,1.6-.4l2.5-1.5a1.46,1.46,0,0,0-1.5-2.5Z"/>
	<path d="M56.9,60a1.37,1.37,0,0,0-1.4,1.4v2.9c0,.4-1.5,1.4-4.3,1.4H41.5a1.4,1.4,0,0,0,0,2.8h9.6c4.1,0,7.2-1.9,7.2-4.3V61.3A1.35,1.35,0,0,0,56.9,60Z"/>
	<path d="M56.6,35l-6.5-2.6,15.2-7.8a3.92,3.92,0,0,0,1-5.8l-4.2-5a3.56,3.56,0,0,0-3.2-2H24.2a3.6,3.6,0,0,0,0,7.2H48.3L32.2,26.8h-.1l-.1.1h-.1c-.1.1-.2.1-.3.2a1.38,1.38,0,0,1-.4.3l-.3.3-.3.3-.3.3a.52.52,0,0,0-.2.4c0,.1-.1.1-.1.2l-4,8.2L10,44.4a4.3,4.3,0,0,0,1.8,8.2,3.92,3.92,0,0,0,1.8-.4L31,44.3a4.51,4.51,0,0,0,2.1-2l3-6,13.7,5.3L45,57.3a4.32,4.32,0,0,0,2.9,5.4,5.07,5.07,0,0,0,1.3.2,4.17,4.17,0,0,0,4.1-3.1l5.9-19.5A4.3,4.3,0,0,0,56.6,35Z"/>
	<path d="M63.7,8.4a7,7,0,1,0,7-7A7.15,7.15,0,0,0,63.7,8.4Z"/>
	<path d="M54.6,1.4A1.37,1.37,0,0,0,53.2,0H31.1a1.37,1.37,0,0,0-1.4,1.4,1.37,1.37,0,0,0,1.4,1.4h22A1.45,1.45,0,0,0,54.6,1.4Z"/>
	<path d="M22.1,5a1.37,1.37,0,0,0-1.4,1.4,1.37,1.37,0,0,0,1.4,1.4h22a1.37,1.37,0,0,0,1.4-1.4A1.37,1.37,0,0,0,44.1,5Z"/>
	<path d="M81.6,27.7H67.8a1.4,1.4,0,1,0,0,2.8H81.6a1.4,1.4,0,1,0,0-2.8Z"/>
	<path d="M76,32.8H62.2a1.4,1.4,0,0,0,0,2.8H76a1.4,1.4,0,0,0,0-2.8Z"/>
</svg>
