<svg xmlns="http://www.w3.org/2000/svg" viewBox="0 0 80 57.7">
	<path d="M78.5,14.6h.2A1.32,1.32,0,0,0,80,13.3V4a1.32,1.32,0,0,0-1.3-1.3h-.2A1.32,1.32,0,0,0,77.2,4v9.3A1.32,1.32,0,0,0,78.5,14.6Z"/>
	<path d="M1.5,2.6H1.3A1.32,1.32,0,0,0,0,3.9v9.3a1.32,1.32,0,0,0,1.3,1.3h.2a1.32,1.32,0,0,0,1.3-1.3V3.9A1.32,1.32,0,0,0,1.5,2.6Z"/>
	<path d="M4,32.5a4.73,4.73,0,0,0,4,2.2H20.1l9.4,21.4A2.64,2.64,0,0,0,32,57.7H49.3a2.58,2.58,0,0,0,2.5-1.8l7.4-21.2H72.1a4.78,4.78,0,0,0,4.2-6.9l-9-17.6h5.3v5.1a1.81,1.81,0,1,0,3.6,0V2a1.81,1.81,0,1,0-3.6,0V7.1h-7a4.64,4.64,0,0,0-6.2-1.7,5.19,5.19,0,0,0-1.9,1.7H48a10,10,0,0,0-8.7-5,10.12,10.12,0,0,0-8.7,5H21.2a4.94,4.94,0,0,0-2-1.8,4.73,4.73,0,0,0-6,1.8H6.8V2A1.91,1.91,0,0,0,5,0,1.91,1.91,0,0,0,3.2,2V15.3a1.91,1.91,0,0,0,1.8,2,1.91,1.91,0,0,0,1.8-2V10.2h4.8L3.7,27.9A5.31,5.31,0,0,0,4,32.5ZM29.8,10.2a11,11,0,0,0-.2,1.8,10,10,0,0,0,20,0,11,11,0,0,0-.2-1.8H57a5.73,5.73,0,0,0,.4,1.4l6.9,13.6h-49l6.4-13.7a5,5,0,0,0,.4-1.3Z"/>
</svg>
