<svg xmlns="http://www.w3.org/2000/svg" viewBox="0 0 56.05 76.01">
	<path d="M51.57,0c-12.1,1.1-21.1,7.2-26.4,16-3.5,4.4-10.5,17.8-13.1,24.8A197.81,197.81,0,0,0,.27,69.42c-1.9,5.7,6.7,9.5,8.7,3.7,2.4-7,5.2-14.6,8.4-21.7q4.8,10.8,9.9,21.3c2.7,5.5,10.8.7,8.2-4.8-3.6-7.2-6.9-14.6-10.2-21.9,0-.1.1-.3.1-.4a3.6,3.6,0,0,0,1.8.1c5-.9,10.1-1.9,15.1-2.8,2.2-.4,3-2.8,2.6-4.6-1-5.6-4.2-9.6-8.2-13.3-.6-2-2.6-3.8-4.8-5.6,4.5-7.2,11.7-11.1,21.2-12C58,7,56.37-.38,51.57,0Zm-18.3,32.1a20.7,20.7,0,0,1,3.1,4.2c-2.4.5-4.9.9-7.3,1.4A37.2,37.2,0,0,1,33.27,32.12Z"/>
	<path d="M43.67,25.72a6.5,6.5,0,1,0-6.5-6.5A6.49,6.49,0,0,0,43.67,25.72Z"/>
</svg>
